<svg xmlns="http://www.w3.org/2000/svg" viewBox="0 0 15.84 23.01"><defs><style>.cls-1{fill:#231f20;}</style></defs><title>GrenadeAsset 1</title><g id="Layer_2" data-name="Layer 2"><g id="Layer_1-2" data-name="Layer 1"><path class="cls-1" d="M15.84,3.06v15.2H14.41A6.41,6.41,0,0,0,14.53,17V14.74A2.46,2.46,0,0,0,15,13.35,2.43,2.43,0,0,0,14.53,12V9.68A7,7,0,0,0,11.6,4a6.87,6.87,0,0,0-1.74-.91A7,7,0,0,0,7.55,2.7H6.42a6.92,6.92,0,0,0-3.48.93V1.39A1.4,1.4,0,0,1,4.34,0H9.63A1.39,1.39,0,0,1,11,1.39V2h2.91v1.1Z"/><path class="cls-1" d="M13.53,9.68v1.47a2.44,2.44,0,0,0-1-.2H1.41a2.49,2.49,0,0,0-1,.2V9.68a6,6,0,0,1,6-6H7.55a6,6,0,0,1,6,6"/><path class="cls-1" d="M13.53,15.55V17a5.58,5.58,0,0,1-.13,1.23A6,6,0,0,1,7.55,23H6.42a6,6,0,0,1-6-6V15.55a2.37,2.37,0,0,0,1,.21H12.56a2.29,2.29,0,0,0,1-.21"/><path class="cls-1" d="M14,13.35a.86.86,0,0,1,0,.23v0a.94.94,0,0,1,0,.16s0,0,0,0a.13.13,0,0,1,0,.08.56.56,0,0,1-.07.16,1,1,0,0,1-.12.19,1.14,1.14,0,0,1-.15.17,1.43,1.43,0,0,1-1,.38H1.41a1.44,1.44,0,0,1-1-.39L.3,14.23A1.28,1.28,0,0,1,.15,14a.89.89,0,0,1-.08-.17c0-.07,0-.13,0-.2v0a.28.28,0,0,1,0-.09,1.13,1.13,0,0,1,0-.3.22.22,0,0,1,0-.08H0c0-.07,0-.14.05-.21s.06-.12.08-.18a1.74,1.74,0,0,1,.11-.18l0-.07.12-.13a1.39,1.39,0,0,1,1-.39H12.56a1.35,1.35,0,0,1,1,.39,1.37,1.37,0,0,1,.16.18l.12.17v0a1,1,0,0,1,.07.15.14.14,0,0,1,0,.06,1.46,1.46,0,0,1,0,.2h0a.82.82,0,0,1,0,.22"/></g></g></svg>