<svg xmlns="http://www.w3.org/2000/svg" viewBox="0 0 32.81 22.68"><defs><style>.cls-1{fill:#231f20;}</style></defs><title>RapidFireAsset 1</title><g id="Layer_2" data-name="Layer 2"><g id="Layer_1-2" data-name="Layer 1"><path class="cls-1" d="M3.12,5.33V9.51a.57.57,0,0,0,.57.57h.12a.57.57,0,0,0,.57-.57V1.06A.58.58,0,0,0,3.81.49H3.69a.58.58,0,0,0-.57.57V5.33Z"/><path class="cls-1" d="M0,5.29V10a.56.56,0,0,0,.57.57h1A.56.56,0,0,0,2.09,10V.57A.57.57,0,0,0,1.52,0H.57A.57.57,0,0,0,0,.57Z"/><path class="cls-1" d="M5.41,4.77V9.51a.57.57,0,0,0,.57.57h6.55c9.42,0,10-4.79,10-4.79S22,.49,12.53.49H6a.58.58,0,0,0-.57.57V4.77Z"/><path class="cls-1" d="M13.36,17.44v4.18a.57.57,0,0,0,.57.57H14a.57.57,0,0,0,.57-.57V13.17A.56.56,0,0,0,14,12.6h-.11a.56.56,0,0,0-.57.57v4.27Z"/><path class="cls-1" d="M10.23,17.39v4.72a.58.58,0,0,0,.57.57h.95a.57.57,0,0,0,.57-.57V12.68a.56.56,0,0,0-.57-.57H10.8a.57.57,0,0,0-.57.57Z"/><path class="cls-1" d="M15.65,16.87v4.75a.57.57,0,0,0,.56.57h6.55c9.43,0,10.05-4.8,10.05-4.8s-.62-4.79-10-4.79H16.21a.56.56,0,0,0-.56.57v3.7Z"/></g></g></svg>