<svg xmlns="http://www.w3.org/2000/svg" viewBox="0 0 32.81 22.68">
  <defs>
    <style>.cls-1{fill:#231f20;}</style>
  </defs>
  <title>RapidFire</title>
  <g id="Layer_2" data-name="Layer 2">
    <g id="Layer_1-2" data-name="Layer 1">
    <path class="st0" d="M3.1,5.3v4.2c0,0.3,0.3,0.6,0.6,0.6h0.1c0.3,0,0.6-0.3,0.6-0.6V1.1c0-0.3-0.3-0.6-0.6-0.6H3.7c-0.3,0-0.6,0.3-0.6,0.6C3.1,1.1,3.1,5.3,3.1,5.3z"/>
		<path class="st0" d="M0,5.3V10c0,0.3,0.2,0.6,0.5,0.6c0,0,0,0,0,0h1c0.3,0,0.5-0.3,0.5-0.6V0.6C2.1,0.3,1.8,0,1.5,0H0.6C0.3,0,0,0.3,0,0.6V5.3z"/>
		<path class="st0" d="M5.4,4.8v4.7c0,0.3,0.3,0.6,0.6,0.6h6.6c9.4,0,10-4.8,10-4.8s-0.5-4.8-10-4.8H6c-0.3,0-0.6,0.3-0.6,0.6L5.4,4.8z"/>
		<path class="st0" d="M13.4,21.6c0,0.3,0.3,0.6,0.6,0.6H14c0.3,0,0.6-0.3,0.6-0.6v-8.4c0-0.3-0.2-0.6-0.5-0.6c0,0,0,0,0,0h-0.1c-0.3,0-0.6,0.2-0.6,0.5c0,0,0,0,0,0v4.3L13.4,21.6z"/>
		<path class="st0" d="M10.2,17.4v4.7c0,0.3,0.3,0.6,0.6,0.6h0.9c0.3,0,0.6-0.3,0.6-0.6v-9.4c0-0.3-0.2-0.6-0.5-0.6c0,0,0,0,0,0h-0.9c-0.3,0-0.6,0.3-0.6,0.6L10.2,17.4z"/>
		<path class="st0" d="M15.6,16.9v4.8c0,0.3,0.2,0.6,0.6,0.6h6.5c9.4,0,10-4.8,10-4.8s-0.6-4.8-10-4.8h-6.6c-0.3,0-0.6,0.3-0.6,0.6c0,0,0,0,0,0C15.6,13.2,15.6,16.9,15.6,16.9z"/>
    </g>
  </g>
</svg>
