<svg xmlns="http://www.w3.org/2000/svg" viewBox="0 0 13.07 19.89"><defs><style>.cls-1{fill:#231f20;}</style></defs><title>StrengthAsset 1</title><g id="Layer_2" data-name="Layer 2"><g id="Layer_1-2" data-name="Layer 1"><path class="cls-1" d="M8.78,6.76a2.94,2.94,0,0,0,2.42.9c-.31,1.16-1.22,4-1.22,4H2.55l-1-2.11A2.27,2.27,0,0,0,3,9.59,3.45,3.45,0,0,0,5.33,7.48c1.38.11,2.31.55,3.45-.72"/><path class="cls-1" d="M4.07,3.43c.43,0,.83.49,1.21.65a7.33,7.33,0,0,0,1.36.48c.4.08.84,0,1.22.13.91.44.52,2.07-.37,2.28A7.65,7.65,0,0,1,5,6.85a3.3,3.3,0,0,1-2,2.22c-2,.4-2.41-1.23-2.41-3a2.69,2.69,0,0,1,.59-.23,5.65,5.65,0,0,0,1.61-1.4,10.27,10.27,0,0,1,.77-.71,1.08,1.08,0,0,1,.58-.32"/><path class="cls-1" d="M11.41,2.16a1.32,1.32,0,0,1,1.4.46A1.54,1.54,0,0,1,13,4a7.93,7.93,0,0,1-.55,1,10.18,10.18,0,0,1-1.12,1.49,1,1,0,0,1-.45.33c-.95.21-1.58-.71-1.66-1.54a2.36,2.36,0,0,1,.06-.75,7,7,0,0,1,2.15-2.41"/><path class="cls-1" d="M8.25.77a1.47,1.47,0,0,1,1.69,1.5,1.78,1.78,0,0,1-.55,1c-.23.3-.48.6-.73.89a2.5,2.5,0,0,1-.22.24c-.57-.44-1.32-.1-2-.57.35-1,.66-2.89,1.84-3"/><path class="cls-1" d="M1.15.77C2.83.52,3,2,3.15,3.33,2.57,3.56,1.39,5.14.6,5.24L.39,4.7C-.15,3.49-.32,1,1.15.77"/><path class="cls-1" d="M4.83,0C6.71-.16,6,2.48,6,3.67c-.73-.08-1.72-1.34-2.39-.62-.12-1.5-.4-2.9,1.27-3"/><polygon class="cls-1" points="11.01 15.72 1.52 15.72 2.16 12.3 10.36 12.3 11.01 15.72"/><polygon class="cls-1" points="11.65 19.89 0.88 19.89 1.52 16.47 11.01 16.47 11.65 19.89"/></g></g></svg>