<svg xmlns="http://www.w3.org/2000/svg" viewBox="0 0 25.9 19.56"><defs><style>.cls-1{fill:#231f20;}</style></defs><title>WoundsAsset 1</title><g id="Layer_2" data-name="Layer 2"><g id="Layer_1-2" data-name="Layer 1"><path class="cls-1" d="M17.33,13.88h0l0-.15a.14.14,0,0,1,0-.07L13.43.36h0A.48.48,0,0,0,13,0a.47.47,0,0,0-.46.36h0L8.65,13.62l-.06.22,0,.13h0A4.59,4.59,0,0,0,8.43,15a4.53,4.53,0,1,0,9.05,0,4.83,4.83,0,0,0-.15-1.15"/><path class="cls-1" d="M5.81,12.45h0l0-.09a.09.09,0,0,1,0,0L3.26,3.63h0a.32.32,0,0,0-.61,0h0L.15,12.28a.83.83,0,0,0,0,.15l0,.08h0A3.25,3.25,0,0,0,0,13.2a3,3,0,1,0,5.9,0,3.08,3.08,0,0,0-.09-.75"/><path class="cls-1" d="M25.81,12.45h0l0-.09a.09.09,0,0,1,0,0L23.26,3.63h0a.32.32,0,0,0-.61,0h0l-2.49,8.65a.83.83,0,0,0,0,.15l0,.08h0a3.25,3.25,0,0,0-.08.69,3,3,0,1,0,5.9,0,3.08,3.08,0,0,0-.09-.75"/></g></g></svg>